<svg width="487" height="506" viewBox="0 0 487 506" fill="none" xmlns="http://www.w3.org/2000/svg">
<path d="M59 20C59 8.95429 67.9543 0 79 0H467C478.046 0 487 8.9543 487 20V484H89C72.4315 484 59 470.569 59 454V20Z" fill="#A4C9EB"/>
<rect x="144" y="100" width="200" height="13" fill="#545454"/>
<rect x="144" y="138" width="187" height="13" fill="#545454"/>
<rect x="149.765" y="407.2" width="194.559" height="12.8" fill="#545454"/>
<path d="M144 176H309V189H144V176Z" fill="#545454"/>
<path d="M144 253H309V266H144V253Z" fill="#545454"/>
<path d="M149.765 330.4H305.412V343.2H149.765V330.4Z" fill="#545454"/>
<path d="M149.765 368.8H292.441V381.6H149.765V368.8Z" fill="#545454"/>
<rect x="144" y="215" width="187" height="13" fill="#545454"/>
<rect x="149.765" y="292" width="181.588" height="12.8" fill="#545454"/>
<rect x="98" y="43" width="363" height="25" fill="#545454"/>
<path d="M123.941 105.8C123.941 112.869 118.134 118.6 110.971 118.6C103.807 118.6 98 112.869 98 105.8C98 98.7308 103.807 93 110.971 93C118.134 93 123.941 98.7308 123.941 105.8Z" fill="#545454"/>
<path d="M123.941 144.8C123.941 151.869 118.134 157.6 110.971 157.6C103.807 157.6 98.0001 151.869 98.0001 144.8C98.0001 137.731 103.807 132 110.971 132C118.134 132 123.941 137.731 123.941 144.8Z" fill="#545454"/>
<path d="M123.941 183.2C123.941 190.269 118.134 196 110.971 196C103.807 196 98 190.269 98 183.2C98 176.131 103.807 170.4 110.971 170.4C118.134 170.4 123.941 176.131 123.941 183.2Z" fill="#545454"/>
<rect x="357.294" y="100" width="129.706" height="128" fill="#8FAEC9"/>
<rect x="357.294" y="356" width="129.706" height="128" fill="#586E82"/>
<rect x="357.294" y="228" width="129.706" height="128" fill="#728A9F"/>
<circle cx="150" cy="356" r="150" fill="#8FAEC9"/>
<rect x="50" y="339.333" width="183.333" height="33.3333" fill="#545454"/>
<ellipse cx="217.728" cy="357.062" rx="50" ry="50" transform="rotate(-1.22996 217.728 357.062)" fill="#545454"/>
<path d="M75.1526 397.82L50.1532 372.667L97.0934 372.667L75.1526 397.82Z" fill="#545454"/>
<path d="M243.5 358C243.5 371.807 232.307 383 218.5 383C204.693 383 193.5 371.807 193.5 358C193.5 344.193 204.693 333 218.5 333C232.307 333 243.5 344.193 243.5 358Z" fill="#A4C9EB"/>
<path d="M457.024 131.121C458.196 129.95 460.095 129.95 461.267 131.121L470.315 140.169C471.486 141.341 471.486 143.24 470.315 144.412L428.12 186.606L414.83 173.316L457.024 131.121Z" fill="#C6E0FF"/>
<path d="M388.828 173.363C387.266 171.801 387.266 169.268 388.828 167.706L396.453 160.081C398.015 158.519 400.548 158.519 402.11 160.081L428.377 186.349L417.924 196.802C416.362 198.364 413.829 198.364 412.267 196.802L388.828 173.363Z" fill="#4992D6"/>
</svg>
