<?xml version="1.0" encoding="UTF-8"?>
<svg xmlns="http://www.w3.org/2000/svg" xmlns:xlink="http://www.w3.org/1999/xlink" width="19pt" height="19pt" viewBox="0 0 19 19" version="1.1">
<g id="surface1">
<path style=" stroke:none;fill-rule:nonzero;fill:rgb(64.313725%,78.823529%,92.156863%);fill-opacity:1;" d="M 2.300781 0.75 C 2.300781 0.335938 2.652344 0 3.082031 0 L 18.21875 0 C 18.652344 0 19 0.335938 19 0.75 L 19 18.175781 L 3.472656 18.175781 C 2.824219 18.175781 2.300781 17.667969 2.300781 17.046875 Z M 2.300781 0.75 "/>
<path style=" stroke:none;fill-rule:nonzero;fill:rgb(32.941176%,32.941176%,32.941176%);fill-opacity:1;" d="M 5.617188 3.753906 L 13.421875 3.753906 L 13.421875 4.242188 L 5.617188 4.242188 Z M 5.617188 3.753906 "/>
<path style=" stroke:none;fill-rule:nonzero;fill:rgb(32.941176%,32.941176%,32.941176%);fill-opacity:1;" d="M 5.617188 5.183594 L 12.914062 5.183594 L 12.914062 5.671875 L 5.617188 5.671875 Z M 5.617188 5.183594 "/>
<path style=" stroke:none;fill-rule:nonzero;fill:rgb(32.941176%,32.941176%,32.941176%);fill-opacity:1;" d="M 5.84375 15.289062 L 13.433594 15.289062 L 13.433594 15.769531 L 5.84375 15.769531 Z M 5.84375 15.289062 "/>
<path style=" stroke:none;fill-rule:nonzero;fill:rgb(32.941176%,32.941176%,32.941176%);fill-opacity:1;" d="M 5.617188 6.609375 L 12.054688 6.609375 L 12.054688 7.097656 L 5.617188 7.097656 Z M 5.617188 6.609375 "/>
<path style=" stroke:none;fill-rule:nonzero;fill:rgb(32.941176%,32.941176%,32.941176%);fill-opacity:1;" d="M 5.617188 9.5 L 12.054688 9.5 L 12.054688 9.988281 L 5.617188 9.988281 Z M 5.617188 9.5 "/>
<path style=" stroke:none;fill-rule:nonzero;fill:rgb(32.941176%,32.941176%,32.941176%);fill-opacity:1;" d="M 5.84375 12.40625 L 11.914062 12.40625 L 11.914062 12.886719 L 5.84375 12.886719 Z M 5.84375 12.40625 "/>
<path style=" stroke:none;fill-rule:nonzero;fill:rgb(32.941176%,32.941176%,32.941176%);fill-opacity:1;" d="M 5.84375 13.847656 L 11.410156 13.847656 L 11.410156 14.328125 L 5.84375 14.328125 Z M 5.84375 13.847656 "/>
<path style=" stroke:none;fill-rule:nonzero;fill:rgb(32.941176%,32.941176%,32.941176%);fill-opacity:1;" d="M 5.617188 8.074219 L 12.914062 8.074219 L 12.914062 8.5625 L 5.617188 8.5625 Z M 5.617188 8.074219 "/>
<path style=" stroke:none;fill-rule:nonzero;fill:rgb(32.941176%,32.941176%,32.941176%);fill-opacity:1;" d="M 5.84375 10.964844 L 12.925781 10.964844 L 12.925781 11.445312 L 5.84375 11.445312 Z M 5.84375 10.964844 "/>
<path style=" stroke:none;fill-rule:nonzero;fill:rgb(32.941176%,32.941176%,32.941176%);fill-opacity:1;" d="M 3.824219 1.613281 L 17.984375 1.613281 L 17.984375 2.554688 L 3.824219 2.554688 Z M 3.824219 1.613281 "/>
<path style=" stroke:none;fill-rule:nonzero;fill:rgb(32.941176%,32.941176%,32.941176%);fill-opacity:1;" d="M 4.835938 3.972656 C 4.835938 4.238281 4.609375 4.453125 4.328125 4.453125 C 4.050781 4.453125 3.824219 4.238281 3.824219 3.972656 C 3.824219 3.707031 4.050781 3.492188 4.328125 3.492188 C 4.609375 3.492188 4.835938 3.707031 4.835938 3.972656 Z M 4.835938 3.972656 "/>
<path style=" stroke:none;fill-rule:nonzero;fill:rgb(32.941176%,32.941176%,32.941176%);fill-opacity:1;" d="M 4.835938 5.4375 C 4.835938 5.703125 4.609375 5.917969 4.328125 5.917969 C 4.050781 5.917969 3.824219 5.703125 3.824219 5.4375 C 3.824219 5.171875 4.050781 4.957031 4.328125 4.957031 C 4.609375 4.957031 4.835938 5.171875 4.835938 5.4375 Z M 4.835938 5.4375 "/>
<path style=" stroke:none;fill-rule:nonzero;fill:rgb(32.941176%,32.941176%,32.941176%);fill-opacity:1;" d="M 4.835938 6.878906 C 4.835938 7.144531 4.609375 7.359375 4.328125 7.359375 C 4.050781 7.359375 3.824219 7.144531 3.824219 6.878906 C 3.824219 6.613281 4.050781 6.398438 4.328125 6.398438 C 4.609375 6.398438 4.835938 6.613281 4.835938 6.878906 Z M 4.835938 6.878906 "/>
<path style=" stroke:none;fill-rule:nonzero;fill:rgb(56.078431%,68.235294%,78.823529%);fill-opacity:1;" d="M 13.941406 3.753906 L 19 3.753906 L 19 8.5625 L 13.941406 8.5625 Z M 13.941406 3.753906 "/>
<path style=" stroke:none;fill-rule:nonzero;fill:rgb(34.509804%,43.137255%,50.980392%);fill-opacity:1;" d="M 13.941406 13.367188 L 19 13.367188 L 19 18.175781 L 13.941406 18.175781 Z M 13.941406 13.367188 "/>
<path style=" stroke:none;fill-rule:nonzero;fill:rgb(44.705882%,54.117647%,62.352941%);fill-opacity:1;" d="M 13.941406 8.5625 L 19 8.5625 L 19 13.367188 L 13.941406 13.367188 Z M 13.941406 8.5625 "/>
<path style=" stroke:none;fill-rule:nonzero;fill:rgb(56.078431%,68.235294%,78.823529%);fill-opacity:1;" d="M 11.703125 13.367188 C 11.703125 16.476562 9.085938 19 5.851562 19 C 2.621094 19 0 16.476562 0 13.367188 C 0 10.257812 2.621094 7.734375 5.851562 7.734375 C 9.085938 7.734375 11.703125 10.257812 11.703125 13.367188 Z M 11.703125 13.367188 "/>
<path style=" stroke:none;fill-rule:nonzero;fill:rgb(32.941176%,32.941176%,32.941176%);fill-opacity:1;" d="M 1.949219 12.742188 L 9.101562 12.742188 L 9.101562 13.992188 L 1.949219 13.992188 Z M 1.949219 12.742188 "/>
<path style=" stroke:none;fill-rule:nonzero;fill:rgb(32.941176%,32.941176%,32.941176%);fill-opacity:1;" d="M 10.445312 13.367188 C 10.421875 12.332031 9.53125 11.507812 8.453125 11.53125 C 7.375 11.550781 6.519531 12.410156 6.542969 13.449219 C 6.566406 14.484375 7.460938 15.308594 8.535156 15.285156 C 9.613281 15.261719 10.46875 14.402344 10.445312 13.367188 Z M 10.445312 13.367188 "/>
<path style=" stroke:none;fill-rule:nonzero;fill:rgb(32.941176%,32.941176%,32.941176%);fill-opacity:1;" d="M 2.933594 14.9375 L 1.957031 13.992188 L 3.789062 13.992188 Z M 2.933594 14.9375 "/>
<path style=" stroke:none;fill-rule:nonzero;fill:rgb(64.313725%,78.823529%,92.156863%);fill-opacity:1;" d="M 9.5 13.441406 C 9.5 13.960938 9.0625 14.382812 8.523438 14.382812 C 7.984375 14.382812 7.550781 13.960938 7.550781 13.441406 C 7.550781 12.925781 7.984375 12.503906 8.523438 12.503906 C 9.0625 12.503906 9.5 12.925781 9.5 13.441406 Z M 9.5 13.441406 "/>
<path style=" stroke:none;fill-rule:nonzero;fill:rgb(77.647059%,87.843137%,100%);fill-opacity:1;" d="M 17.832031 4.921875 C 17.875 4.878906 17.949219 4.878906 17.996094 4.921875 L 18.347656 5.261719 C 18.394531 5.308594 18.394531 5.378906 18.347656 5.421875 L 16.703125 7.007812 L 16.183594 6.507812 Z M 17.832031 4.921875 "/>
<path style=" stroke:none;fill-rule:nonzero;fill:rgb(28.627451%,57.254902%,83.921569%);fill-opacity:1;" d="M 15.167969 6.507812 C 15.109375 6.449219 15.109375 6.355469 15.167969 6.296875 L 15.46875 6.011719 C 15.527344 5.953125 15.628906 5.953125 15.6875 6.011719 L 16.710938 6.996094 L 16.304688 7.390625 C 16.242188 7.449219 16.144531 7.449219 16.085938 7.390625 Z M 15.167969 6.507812 "/>
</g>
</svg>
